<svg width="18" height="16" viewBox="0 0 18 16" fill="none" xmlns="http://www.w3.org/2000/svg">
<path d="M18 5.76C18 5.93333 17.9364 6.08333 17.8092 6.21L12.6663 11.33C12.5391 11.4567 12.3884 11.52 12.2143 11.52C12.0402 11.52 11.8895 11.4567 11.7623 11.33C11.635 11.2033 11.5714 11.0533 11.5714 10.88V8.32H9.32143C8.66518 8.32 8.07757 8.34 7.55859 8.38C7.03962 8.42 6.524 8.49167 6.01172 8.595C5.49944 8.69833 5.05413 8.84 4.67578 9.02C4.29743 9.2 3.9442 9.43167 3.61607 9.715C3.28795 9.99833 3.02009 10.335 2.8125 10.725C2.60491 11.115 2.44252 11.5767 2.32533 12.11C2.20815 12.6433 2.14955 13.2467 2.14955 13.92C2.14955 14.2867 2.16629 14.6967 2.19978 15.15C2.19978 15.19 2.20815 15.2683 2.22489 15.385C2.24163 15.5017 2.25 15.59 2.25 15.65C2.25 15.75 2.22154 15.8333 2.16462 15.9C2.1077 15.9667 2.02902 16 1.92857 16C1.82143 16 1.72768 15.9433 1.64732 15.83C1.60045 15.77 1.55692 15.6967 1.51674 15.61C1.47656 15.5233 1.43136 15.4233 1.38114 15.31C1.33092 15.1967 1.29576 15.1167 1.27567 15.07C0.425223 13.17 0 11.6667 0 10.56C0 9.23333 0.177455 8.12333 0.532366 7.23C1.61719 4.54333 4.54688 3.2 9.32143 3.2H11.5714V0.64C11.5714 0.466667 11.635 0.316667 11.7623 0.19C11.8895 0.0633333 12.0402 0 12.2143 0C12.3884 0 12.5391 0.0633333 12.6663 0.19L17.8092 5.31C17.9364 5.43667 18 5.58667 18 5.76Z" fill="white"/>
</svg>
