<svg width="12" height="11" viewBox="0 0 12 11" fill="none" xmlns="http://www.w3.org/2000/svg">
<path opacity="0.2" d="M10.7372 5.0995L8.45434 7.06825L9.15184 10.0115C9.17028 10.0872 9.16588 10.1666 9.1392 10.2397C9.11253 10.3129 9.06476 10.3764 9.00196 10.4224C8.93915 10.4685 8.86411 10.4948 8.78633 10.4982C8.70855 10.5015 8.63152 10.4818 8.56496 10.4414L5.99996 8.86356L3.43496 10.4409C3.36841 10.4813 3.29138 10.5011 3.2136 10.4977C3.13582 10.4943 3.06078 10.468 2.99797 10.422C2.93516 10.376 2.8874 10.3124 2.86072 10.2392C2.83405 10.1661 2.82965 10.0867 2.84809 10.0111L3.54559 7.06778L1.26278 5.09903C1.20457 5.04792 1.16261 4.98089 1.14207 4.90621C1.12153 4.83152 1.12331 4.75246 1.14719 4.67878C1.17107 4.60509 1.216 4.54002 1.27644 4.49158C1.33689 4.44314 1.41019 4.41347 1.48731 4.40622L4.48309 4.16247L5.63715 1.36872C5.66657 1.29664 5.71679 1.23496 5.78141 1.19154C5.84603 1.14813 5.92212 1.12494 5.99996 1.12494C6.07781 1.12494 6.1539 1.14813 6.21852 1.19154C6.28313 1.23496 6.33336 1.29664 6.36278 1.36872L7.51684 4.16247L10.5126 4.40622C10.5898 4.41338 10.6633 4.44303 10.7238 4.4915C10.7844 4.53996 10.8294 4.60512 10.8533 4.6789C10.8771 4.75268 10.8789 4.83184 10.8582 4.9066C10.8376 4.98136 10.7955 5.04842 10.7372 5.0995Z" fill="#FFAE00"/>
<path d="M11.2115 4.55906C11.1646 4.41493 11.0762 4.2879 10.9572 4.19397C10.8383 4.10005 10.6942 4.04343 10.5431 4.03125L7.77747 3.80812L6.70966 1.22578C6.65191 1.08507 6.55362 0.964706 6.4273 0.879998C6.30097 0.79529 6.1523 0.750061 6.00021 0.750061C5.84811 0.750061 5.69944 0.79529 5.57311 0.879998C5.44678 0.964706 5.3485 1.08507 5.29075 1.22578L4.22388 3.80765L1.45685 4.03125C1.30552 4.04404 1.16134 4.10121 1.04236 4.19559C0.923389 4.28997 0.83491 4.41736 0.788014 4.5618C0.741119 4.70624 0.737891 4.86131 0.778736 5.00758C0.81958 5.15385 0.902681 5.28481 1.01763 5.38406L3.127 7.20422L2.48435 9.92578C2.4484 10.0736 2.4572 10.2288 2.50963 10.3717C2.56205 10.5145 2.65574 10.6386 2.7788 10.7281C2.90185 10.8176 3.04872 10.8685 3.20077 10.8744C3.35282 10.8803 3.50319 10.8408 3.63278 10.7611L5.99997 9.30422L8.36856 10.7611C8.49821 10.8399 8.64827 10.8786 8.79984 10.8722C8.95142 10.8659 9.09774 10.8149 9.22038 10.7256C9.34301 10.6363 9.43648 10.5127 9.48902 10.3704C9.54155 10.228 9.5508 10.0733 9.5156 9.92578L8.8706 7.20375L10.98 5.38359C11.0958 5.28451 11.1797 5.15326 11.2209 5.00648C11.2622 4.8597 11.2589 4.70398 11.2115 4.55906ZM10.4925 4.81546L8.20966 6.78421C8.1576 6.82909 8.11887 6.8874 8.09771 6.95279C8.07655 7.01818 8.07376 7.08813 8.08966 7.155L8.78716 10.0987C8.78896 10.1028 8.78914 10.1074 8.78766 10.1116C8.78618 10.1158 8.78314 10.1192 8.77919 10.1212C8.77075 10.1278 8.76841 10.1264 8.76138 10.1212L6.19638 8.5439C6.1373 8.50758 6.06932 8.48835 5.99997 8.48835C5.93062 8.48835 5.86264 8.50758 5.80356 8.5439L3.23856 10.1222C3.23153 10.1264 3.22966 10.1278 3.22075 10.1222C3.2168 10.1202 3.21376 10.1167 3.21228 10.1125C3.2108 10.1083 3.21098 10.1037 3.21278 10.0997L3.91028 7.15593C3.92618 7.08907 3.92339 7.01912 3.90223 6.95373C3.88107 6.88834 3.84234 6.83002 3.79028 6.78515L1.50747 4.8164C1.50185 4.81172 1.49669 4.8075 1.50138 4.79296C1.50606 4.77843 1.50981 4.78031 1.51685 4.77937L4.5131 4.5375C4.58182 4.5316 4.64758 4.50687 4.70316 4.46601C4.75873 4.42516 4.80196 4.36977 4.8281 4.30593L5.98216 1.51171C5.98591 1.50375 5.98731 1.5 5.99856 1.5C6.00981 1.5 6.01122 1.50375 6.01497 1.51171L7.17185 4.30593C7.19822 4.36979 7.24173 4.42512 7.29756 4.46582C7.35339 4.50652 7.41938 4.531 7.48825 4.53656L10.4845 4.77843C10.4915 4.77843 10.4958 4.77843 10.5 4.79203C10.5042 4.80562 10.5 4.81078 10.4925 4.81546Z" fill="#FFAE00"/>
</svg>
