<svg width="16" height="16" viewBox="0 0 16 16" fill="none" xmlns="http://www.w3.org/2000/svg">
<path d="M1.90906 13.3636V10.6591L10.3091 2.275C10.4363 2.15833 10.577 2.06818 10.731 2.00454C10.885 1.94091 11.0466 1.90909 11.2159 1.90909C11.3851 1.90909 11.5495 1.94091 11.7091 2.00454C11.8686 2.06818 12.0065 2.16364 12.1227 2.29091L12.9977 3.18182C13.125 3.29848 13.2179 3.43636 13.2764 3.59545C13.335 3.75454 13.364 3.91364 13.3636 4.07273C13.3636 4.24242 13.3345 4.40427 13.2764 4.55827C13.2183 4.71227 13.1254 4.8527 12.9977 4.97954L4.6136 13.3636H1.90906ZM11.2 4.96364L12.0909 4.07273L11.2 3.18182L10.3091 4.07273L11.2 4.96364Z" fill="#515151" fill-opacity="0.54"/>
</svg>