<svg width="14" height="12" viewBox="0 0 14 12" fill="none" xmlns="http://www.w3.org/2000/svg">
<g clip-path="url(#clip0_3_897)">
<path d="M14 4.32C14 4.45 13.9505 4.5625 13.8516 4.6575L9.85156 8.4975C9.7526 8.5925 9.63542 8.64 9.5 8.64C9.36458 8.64 9.2474 8.5925 9.14844 8.4975C9.04948 8.4025 9 8.29 9 8.16V6.24H7.25C6.73958 6.24 6.28255 6.255 5.87891 6.285C5.47526 6.315 5.07422 6.36875 4.67578 6.44625C4.27734 6.52375 3.93099 6.63 3.63672 6.765C3.34245 6.9 3.06771 7.07375 2.8125 7.28625C2.55729 7.49875 2.34896 7.75125 2.1875 8.04375C2.02604 8.33625 1.89974 8.6825 1.80859 9.0825C1.71745 9.4825 1.67188 9.935 1.67188 10.44C1.67188 10.715 1.6849 11.0225 1.71094 11.3625C1.71094 11.3925 1.71745 11.4513 1.73047 11.5387C1.74349 11.6262 1.75 11.6925 1.75 11.7375C1.75 11.8125 1.72786 11.875 1.68359 11.925C1.63932 11.975 1.57812 12 1.5 12C1.41667 12 1.34375 11.9575 1.28125 11.8725C1.24479 11.8275 1.21094 11.7725 1.17969 11.7075C1.14844 11.6425 1.11328 11.5675 1.07422 11.4825C1.03516 11.3975 1.00781 11.3375 0.992188 11.3025C0.330729 9.8775 0 8.75 0 7.92C0 6.925 0.138021 6.0925 0.414062 5.4225C1.25781 3.4075 3.53646 2.4 7.25 2.4H9V0.48C9 0.35 9.04948 0.2375 9.14844 0.1425C9.2474 0.0475 9.36458 0 9.5 0C9.63542 0 9.7526 0.0475 9.85156 0.1425L13.8516 3.9825C13.9505 4.0775 14 4.19 14 4.32Z" fill="#515151"/>
</g>
<defs>
<clipPath id="clip0_3_897">
<rect width="14" height="12" fill="white"/>
</clipPath>
</defs>
</svg>
