<svg width="16" height="16" viewBox="0 0 16 16" fill="none" xmlns="http://www.w3.org/2000/svg">
<path d="M1.90912 13.3637V10.6591L10.3091 2.27503C10.4364 2.15836 10.577 2.06821 10.731 2.00457C10.885 1.94094 11.0467 1.90912 11.2159 1.90912C11.3852 1.90912 11.5496 1.94094 11.7091 2.00457C11.8686 2.06821 12.0065 2.16366 12.1228 2.29094L12.9978 3.18185C13.125 3.29851 13.2179 3.43639 13.2765 3.59548C13.335 3.75457 13.3641 3.91366 13.3637 4.07276C13.3637 4.24245 13.3346 4.4043 13.2765 4.5583C13.2184 4.7123 13.1255 4.85272 12.9978 4.97957L4.61366 13.3637H1.90912ZM11.2 4.96366L12.0909 4.07276L11.2 3.18185L10.3091 4.07276L11.2 4.96366Z" fill="#515151" fill-opacity="0.54"/>
</svg>