<svg width="109" height="19" viewBox="0 0 109 19" fill="none" xmlns="http://www.w3.org/2000/svg">
<path fill-rule="evenodd" clip-rule="evenodd" d="M2.32266 7.06222C1.8678 7.06222 1.49907 7.43269 1.49907 7.88969V15.4355C1.49907 15.8925 1.8678 16.263 2.32266 16.263H9.83318C10.288 16.263 10.6568 15.8925 10.6568 15.4355V7.88969C10.6568 7.43269 10.288 7.06222 9.83318 7.06222H2.32266ZM0.0102539 7.88969C0.0102539 6.60658 1.04555 5.56641 2.32266 5.56641H9.83318C11.1103 5.56641 12.1456 6.60658 12.1456 7.88969V15.4355C12.1456 16.7186 11.1103 17.7588 9.83318 17.7588H2.32266C1.04555 17.7588 0.0102539 16.7186 0.0102539 15.4355V7.88969Z" fill="url(#paint0_linear_1_8)"/>
<path fill-rule="evenodd" clip-rule="evenodd" d="M7.91617 1.49581C7.46131 1.49581 7.09257 1.86628 7.09257 2.32328V9.86912C7.09257 10.3261 7.46131 10.6966 7.91617 10.6966H15.4267C15.8815 10.6966 16.2503 10.3261 16.2503 9.86912V2.32328C16.2503 1.86628 15.8815 1.49581 15.4267 1.49581H7.91617ZM5.60376 2.32328C5.60376 1.04017 6.63906 0 7.91617 0H15.4267C16.7038 0 17.7391 1.04017 17.7391 2.32328V9.86912C17.7391 11.1522 16.7038 12.1924 15.4267 12.1924H7.91617C6.63906 12.1924 5.60376 11.1522 5.60376 9.86912V2.32328Z" fill="url(#paint1_linear_1_8)"/>
<path d="M21.2209 16.995V5.63528H23.6183V15.0059H28.2044V16.995H21.2209ZM37.9257 8.30817V16.995H36.116L35.7989 15.8839H35.675C35.4894 16.1791 35.2575 16.42 34.9791 16.6065C34.7006 16.793 34.3937 16.9302 34.0589 17.0183C33.7237 17.1063 33.3756 17.1504 33.0148 17.1504C32.3962 17.1504 31.8573 17.0416 31.3984 16.824C30.9395 16.6013 30.5812 16.2568 30.3234 15.7906C30.0708 15.3244 29.9444 14.7184 29.9444 13.9725V8.30817H32.3033V13.382C32.3033 14.0036 32.4139 14.4723 32.6356 14.7883C32.8574 15.1043 33.2106 15.2623 33.6952 15.2623C34.1748 15.2623 34.5511 15.1535 34.8245 14.936C35.0976 14.7132 35.2883 14.3895 35.3966 13.9647C35.51 13.5348 35.5667 13.0116 35.5667 12.3952V8.30817H37.9257ZM50.5546 8.145C51.534 8.145 52.274 8.39881 52.7742 8.90646C53.2794 9.40889 53.5319 10.217 53.5319 11.3307V16.995H51.1653V11.9212C51.1653 11.2996 51.0598 10.8308 50.8482 10.5148C50.6369 10.1988 50.3097 10.0409 49.8662 10.0409C49.2422 10.0409 48.7991 10.2662 48.5361 10.7168C48.2732 11.1623 48.1418 11.8021 48.1418 12.636V16.995H45.7828V11.9212C45.7828 11.5068 45.7365 11.1597 45.6437 10.88C45.5509 10.6003 45.409 10.3905 45.2183 10.2507C45.0276 10.1108 44.7827 10.0409 44.4837 10.0409C44.0453 10.0409 43.7 10.1522 43.4473 10.375C43.1999 10.5925 43.0218 10.9163 42.9138 11.3462C42.8105 11.771 42.7589 12.2916 42.7589 12.908V16.995H40.4003V8.30817H42.2024L42.5194 9.41927H42.6509C42.8261 9.11883 43.0453 8.87537 43.3082 8.6889C43.5762 8.5024 43.8701 8.36513 44.1898 8.27707C44.5094 8.18901 44.8341 8.145 45.1641 8.145C45.7983 8.145 46.3346 8.24859 46.7727 8.45577C47.2162 8.66299 47.5564 8.98415 47.7936 9.41927H48.0024C48.2602 8.97377 48.6236 8.65004 49.0927 8.44801C49.5672 8.24601 50.0544 8.145 50.5546 8.145ZM58.3189 8.30817V16.995H55.9602V8.30817H58.3189ZM57.1437 4.90491C57.494 4.90491 57.7956 4.98778 58.0484 5.15356C58.3008 5.31412 58.4272 5.61717 58.4272 6.06263C58.4272 6.50294 58.3008 6.80857 58.0484 6.9795C57.7956 7.14525 57.494 7.22813 57.1437 7.22813C56.7876 7.22813 56.4835 7.14525 56.2311 6.9795C55.9834 6.80857 55.8598 6.50294 55.8598 6.06263C55.8598 5.61717 55.9834 5.31412 56.2311 5.15356C56.4835 4.98778 56.7876 4.90491 57.1437 4.90491ZM65.7123 8.145C66.6353 8.145 67.3775 8.39881 67.9398 8.90646C68.5017 9.40889 68.7827 10.217 68.7827 11.3307V16.995H66.4237V11.9212C66.4237 11.2996 66.3103 10.8308 66.0835 10.5148C65.8618 10.1988 65.5114 10.0409 65.0318 10.0409C64.3099 10.0409 63.8177 10.2869 63.5548 10.779C63.2918 11.2711 63.1604 11.9808 63.1604 12.908V16.995H60.8014V8.30817H62.6035L62.9206 9.41927H63.052C63.2377 9.11883 63.467 8.87537 63.7404 8.6889C64.0188 8.5024 64.3255 8.36513 64.6606 8.27707C65.0008 8.18901 65.3515 8.145 65.7123 8.145ZM74.9926 16.995H73.6701V6.8008H70.1128V5.63528H78.5347V6.8008H74.9926V16.995ZM83.3141 8.3237C84.0357 8.3237 84.6544 8.48429 85.1701 8.80544C85.6858 9.1266 86.0802 9.57725 86.3532 10.1574C86.6266 10.7324 86.7631 11.4058 86.7631 12.1776V12.9779H80.9089C80.9244 13.9776 81.1718 14.7391 81.6514 15.2623C82.1307 15.7854 82.8064 16.0471 83.6775 16.0471C84.2138 16.0471 84.688 15.9979 85.1004 15.8994C85.5128 15.801 85.9408 15.6559 86.3843 15.4643V16.5987C85.9563 16.7904 85.5309 16.9302 85.1083 17.0183C84.6905 17.1063 84.1957 17.1504 83.6233 17.1504C82.8089 17.1504 82.0974 16.9846 81.4889 16.6531C80.8858 16.3164 80.4167 15.8243 80.0815 15.1768C79.7464 14.5293 79.5788 13.7368 79.5788 12.7992C79.5788 11.8823 79.7309 11.0898 80.035 10.4216C80.3444 9.74819 80.7775 9.23019 81.3343 8.8676C81.8963 8.50501 82.5561 8.3237 83.3141 8.3237ZM83.2986 9.38041C82.6128 9.38041 82.0664 9.60574 81.659 10.0564C81.2517 10.5071 81.0093 11.1364 80.932 11.9445H85.4175C85.4124 11.4369 85.3326 10.9914 85.1777 10.6081C85.0282 10.2196 84.7988 9.91912 84.4897 9.70675C84.1802 9.48919 83.7833 9.38041 83.2986 9.38041ZM92.3392 17.1504C91.5761 17.1504 90.9033 16.9924 90.3207 16.6764C89.7382 16.3604 89.2843 15.8787 88.9596 15.2312C88.6349 14.5837 88.4724 13.7678 88.4724 12.7837C88.4724 11.7528 88.6425 10.9111 88.9827 10.2584C89.3283 9.60058 89.8025 9.11365 90.4056 8.79768C91.0091 8.48168 91.6946 8.3237 92.463 8.3237C92.8856 8.3237 93.293 8.36774 93.6848 8.45577C94.0817 8.53868 94.4067 8.64485 94.6592 8.77435L94.2724 9.85439C94.0149 9.7508 93.7159 9.65755 93.3753 9.57467C93.0402 9.4918 92.726 9.45033 92.432 9.45033C91.8441 9.45033 91.3544 9.57725 90.9625 9.83106C90.5761 10.0849 90.2846 10.4578 90.0885 10.95C89.8978 11.4421 89.8025 12.0481 89.8025 12.7681C89.8025 13.4571 89.8953 14.045 90.0809 14.5319C90.2716 15.0188 90.5526 15.3918 90.9239 15.6508C91.3002 15.9046 91.7693 16.0315 92.3313 16.0315C92.7801 16.0315 93.1846 15.9849 93.5454 15.8916C93.9066 15.7932 94.2338 15.6793 94.5277 15.5498V16.6997C94.2442 16.8448 93.9271 16.9561 93.5765 17.0338C93.2312 17.1115 92.8188 17.1504 92.3392 17.1504ZM97.8221 4.90491V8.51796C97.8221 8.72515 97.8171 8.93494 97.8069 9.14732C97.7965 9.3545 97.7784 9.54619 97.7528 9.72228H97.8377C98.0131 9.42185 98.2349 9.17061 98.5029 8.96862C98.7762 8.7614 99.0854 8.60602 99.431 8.5024C99.7763 8.39362 100.142 8.33923 100.529 8.33923C101.21 8.33923 101.777 8.44801 102.23 8.66557C102.689 8.88313 103.032 9.21985 103.259 9.67569C103.491 10.1315 103.607 10.722 103.607 11.4472V16.995H102.339V11.5327C102.339 10.823 102.176 10.2921 101.851 9.93984C101.532 9.58763 101.04 9.4115 100.374 9.4115C99.7452 9.4115 99.2428 9.53324 98.8662 9.77667C98.4953 10.015 98.227 10.3672 98.0619 10.8334C97.9023 11.2996 97.8221 11.8694 97.8221 12.5428V16.995H96.5386V4.90491H97.8221Z" fill="#4C4C66"/>
<defs>
<linearGradient id="paint0_linear_1_8" x1="11.8519" y1="5.56641" x2="0.253759" y2="17.7045" gradientUnits="userSpaceOnUse">
<stop stop-color="#00C2FF"/>
<stop offset="1" stop-color="#8F01FF" stop-opacity="0.28"/>
</linearGradient>
<linearGradient id="paint1_linear_1_8" x1="11.9451" y1="12.1924" x2="11.9451" y2="0.603586" gradientUnits="userSpaceOnUse">
<stop stop-color="#7000FF"/>
<stop offset="1" stop-color="white" stop-opacity="0"/>
</linearGradient>
</defs>
</svg>
