<svg width="35" height="35" viewBox="0 0 35 35" fill="none" xmlns="http://www.w3.org/2000/svg">
<g clip-path="url(#clip0_3_61)">
<path d="M0 0V35H35V0H0ZM15.5368 9.35882C16.5278 9.34856 17.4971 9.45843 17.97 9.47205C19.7229 9.52251 20.0325 10.4091 20.01 11.1383C19.9772 12.2063 19.2901 16.724 20.5633 17.1646C22.4186 16.1725 23.6627 13.0912 24.5687 11.1383C25.0271 10.1505 24.9546 10.1014 26.0107 10.1001L30.2063 10.0937C31.2166 10.0924 31.1772 10.057 31.5008 10.4697C32.2536 11.4295 29.1253 15.422 28.1149 16.5259C26.2503 18.5631 27.3382 19.352 27.6385 19.632C29.0301 20.9294 30.3746 22.2748 31.2103 23.5156C31.8747 24.5021 31.6003 25.4206 30.7553 25.4553L26.2564 25.6412C24.7634 25.7025 22.4421 23.0263 22.0715 22.4432C21.7719 21.9623 20.3277 21.3595 20.1916 22.5884L20.0015 24.3038C19.8634 25.53 18.958 25.5014 18.2434 25.5321C13.2947 25.7451 11.6094 23.861 9.11738 21.0802C7.29094 18.4972 5.54797 15.8994 4.10366 12.7874C3.67135 11.8558 3.44237 11.1725 3.38374 10.4482C4.11046 9.88021 6.66129 10.1249 8.37398 10.0872C8.84243 10.0768 9.15851 10.3453 9.40578 10.8797C10.3706 12.9655 11.4229 15.0138 12.8152 16.8249C13.4216 17.3833 13.9576 17.5887 14.2251 16.4532C14.3805 16.4389 14.368 14.5584 14.3768 13.1398C14.3828 12.1659 14.2684 10.9978 12.6187 10.4589C12.9524 9.5842 14.2627 9.37204 15.5368 9.35882Z" fill="#3535FF"/>
</g>
<defs>
<clipPath id="clip0_3_61">
<rect width="35" height="35" rx="5" fill="white"/>
</clipPath>
</defs>
</svg>
