<svg width="53" height="54" viewBox="0 0 53 54" fill="none" xmlns="http://www.w3.org/2000/svg">
<path fill-rule="evenodd" clip-rule="evenodd" d="M6.81781 21.5217C5.47672 21.5217 4.38955 22.614 4.38955 23.9614V46.2092C4.38955 47.5566 5.47672 48.6489 6.81781 48.6489H28.9615C30.3026 48.6489 31.3897 47.5566 31.3897 46.2092V23.9614C31.3897 22.614 30.3026 21.5217 28.9615 21.5217H6.81781ZM0 23.9614C0 20.1783 3.05244 17.1115 6.81781 17.1115H28.9615C32.7269 17.1115 35.7793 20.1783 35.7793 23.9614V46.2092C35.7793 49.9923 32.7269 53.0591 28.9615 53.0591H6.81781C3.05244 53.0591 0 49.9923 0 46.2092V23.9614Z" fill="url(#paint0_linear_3_197)"/>
<path fill-rule="evenodd" clip-rule="evenodd" d="M23.3096 5.10996C21.9685 5.10996 20.8814 6.20224 20.8814 7.54964V29.7974C20.8814 31.1448 21.9685 32.2371 23.3096 32.2371H45.4533C46.7944 32.2371 47.8816 31.1448 47.8816 29.7974V7.54964C47.8816 6.20224 46.7944 5.10996 45.4533 5.10996H23.3096ZM16.4918 7.54964C16.4918 3.76656 19.5443 0.699768 23.3096 0.699768H45.4533C49.2187 0.699768 52.2711 3.76656 52.2711 7.54964V29.7974C52.2711 33.5805 49.2187 36.6473 45.4533 36.6473H23.3096C19.5443 36.6473 16.4918 33.5805 16.4918 29.7974V7.54964Z" fill="url(#paint1_linear_3_197)"/>
<defs>
<linearGradient id="paint0_linear_3_197" x1="34.9133" y1="17.1115" x2="0.717942" y2="52.8988" gradientUnits="userSpaceOnUse">
<stop stop-color="#00C2FF"/>
<stop offset="1" stop-color="#8F01FF" stop-opacity="0.28"/>
</linearGradient>
<linearGradient id="paint1_linear_3_197" x1="35.1884" y1="36.6473" x2="35.1884" y2="2.47935" gradientUnits="userSpaceOnUse">
<stop stop-color="#7000FF"/>
<stop offset="1" stop-color="white" stop-opacity="0"/>
</linearGradient>
</defs>
</svg>
