<svg width="16" height="16" viewBox="0 0 16 16" fill="none" xmlns="http://www.w3.org/2000/svg">
<g clip-path="url(#clip0_1_250)">
<path d="M-0.00012207 3C-0.00012207 2.46957 0.210592 1.96086 0.585664 1.58579C0.960737 1.21071 1.46944 1 1.99988 1H13.9999C14.5303 1 15.039 1.21071 15.4141 1.58579C15.7892 1.96086 15.9999 2.46957 15.9999 3V13C15.9999 13.5304 15.7892 14.0391 15.4141 14.4142C15.039 14.7893 14.5303 15 13.9999 15H1.99988C1.46944 15 0.960737 14.7893 0.585664 14.4142C0.210592 14.0391 -0.00012207 13.5304 -0.00012207 13V3ZM9.49988 8.5H6.49988C6.36727 8.5 6.24009 8.55268 6.14632 8.64645C6.05256 8.74021 5.99988 8.86739 5.99988 9C5.99988 9.13261 6.05256 9.25979 6.14632 9.35355C6.24009 9.44732 6.36727 9.5 6.49988 9.5H9.49988C9.63249 9.5 9.75966 9.44732 9.85343 9.35355C9.9472 9.25979 9.99988 9.13261 9.99988 9C9.99988 8.86739 9.9472 8.74021 9.85343 8.64645C9.75966 8.55268 9.63249 8.5 9.49988 8.5ZM3.14588 8.146C3.09939 8.19249 3.06251 8.24768 3.03735 8.30842C3.0122 8.36916 2.99925 8.43426 2.99925 8.5C2.99925 8.56574 3.0122 8.63084 3.03735 8.69158C3.06251 8.75232 3.09939 8.80751 3.14588 8.854C3.23976 8.94789 3.3671 9.00063 3.49988 9.00063C3.56562 9.00063 3.63072 8.98768 3.69146 8.96252C3.7522 8.93736 3.80739 8.90049 3.85388 8.854L5.85388 6.854C5.90044 6.80755 5.93738 6.75238 5.96259 6.69163C5.9878 6.63089 6.00077 6.56577 6.00077 6.5C6.00077 6.43423 5.9878 6.36911 5.96259 6.30837C5.93738 6.24762 5.90044 6.19245 5.85388 6.146L3.85388 4.146C3.80739 4.09951 3.7522 4.06264 3.69146 4.03748C3.63072 4.01232 3.56562 3.99937 3.49988 3.99937C3.43413 3.99937 3.36903 4.01232 3.30829 4.03748C3.24756 4.06264 3.19237 4.09951 3.14588 4.146C3.09939 4.19249 3.06251 4.24768 3.03735 4.30842C3.0122 4.36916 2.99925 4.43426 2.99925 4.5C2.99925 4.56574 3.0122 4.63084 3.03735 4.69158C3.06251 4.75232 3.09939 4.80751 3.14588 4.854L4.79288 6.5L3.14588 8.146Z" fill="#6F6C99" fill-opacity="0.45"/>
</g>
<defs>
<clipPath id="clip0_1_250">
<rect width="16" height="16" fill="white"/>
</clipPath>
</defs>
</svg>
