<svg width="25" height="24" viewBox="0 0 25 24" fill="none" xmlns="http://www.w3.org/2000/svg">
<path d="M8.7811 2H15.7611C15.9931 2 16.1711 2 16.3271 2.015C17.4351 2.124 18.3421 2.79 18.7271 3.687H5.81509C6.20009 2.79 7.10709 2.124 8.21509 2.015C8.36909 2 8.54709 2 8.7811 2ZM6.58109 4.723C5.19109 4.723 4.05109 5.563 3.67109 6.677L3.64709 6.747C4.04509 6.627 4.46009 6.547 4.87909 6.494C5.95909 6.355 7.3251 6.355 8.9111 6.355H15.8031C17.3891 6.355 18.7541 6.355 19.8351 6.494C20.2551 6.548 20.6691 6.626 21.0671 6.747L21.0441 6.677C20.6641 5.563 19.5241 4.723 18.1331 4.723H6.58109Z" fill="#3535FF" fill-opacity="0.73"/>
<path fill-rule="evenodd" clip-rule="evenodd" d="M8.94314 7.54199H15.5991C18.9731 7.54199 20.6611 7.54199 21.6091 8.52899C22.5571 9.51599 22.3331 11.04 21.8871 14.089L21.4651 16.981C21.1151 19.372 20.9401 20.568 20.0431 21.284C19.1461 22 17.8231 22 15.1761 22H9.36614C6.72014 22 5.39614 22 4.49914 21.284C3.60214 20.568 3.42714 19.372 3.07714 16.981L2.65514 14.09C2.20814 11.04 1.98514 9.51599 2.93314 8.52899C3.88114 7.54199 5.56914 7.54199 8.94314 7.54199ZM8.27114 18C8.27114 17.586 8.64414 17.25 9.10414 17.25H15.4381C15.8981 17.25 16.2711 17.586 16.2711 18C16.2711 18.414 15.8981 18.75 15.4381 18.75H9.10414C8.64414 18.75 8.27114 18.414 8.27114 18Z" fill="#3535FF" fill-opacity="0.73"/>
</svg>
