<svg width="53" height="54" viewBox="0 0 53 54" fill="none" xmlns="http://www.w3.org/2000/svg">
<path fill-rule="evenodd" clip-rule="evenodd" d="M6.81781 21.5216C5.47672 21.5216 4.38955 22.6139 4.38955 23.9613V46.2091C4.38955 47.5565 5.47672 48.6488 6.81781 48.6488H28.9615C30.3026 48.6488 31.3897 47.5565 31.3897 46.2091V23.9613C31.3897 22.6139 30.3026 21.5216 28.9615 21.5216H6.81781ZM0 23.9613C0 20.1782 3.05244 17.1115 6.81781 17.1115H28.9615C32.7269 17.1115 35.7793 20.1782 35.7793 23.9613V46.2091C35.7793 49.9922 32.7269 53.059 28.9615 53.059H6.81781C3.05244 53.059 0 49.9922 0 46.2091V23.9613Z" fill="url(#paint0_linear_1_252)"/>
<path fill-rule="evenodd" clip-rule="evenodd" d="M23.3096 5.1099C21.9685 5.1099 20.8814 6.20218 20.8814 7.54958V29.7974C20.8814 31.1448 21.9685 32.2371 23.3096 32.2371H45.4533C46.7944 32.2371 47.8816 31.1448 47.8816 29.7974V7.54958C47.8816 6.20218 46.7944 5.1099 45.4533 5.1099H23.3096ZM16.4918 7.54958C16.4918 3.7665 19.5443 0.699707 23.3096 0.699707H45.4533C49.2187 0.699707 52.2711 3.7665 52.2711 7.54958V29.7974C52.2711 33.5805 49.2187 36.6473 45.4533 36.6473H23.3096C19.5443 36.6473 16.4918 33.5805 16.4918 29.7974V7.54958Z" fill="url(#paint1_linear_1_252)"/>
<defs>
<linearGradient id="paint0_linear_1_252" x1="34.9133" y1="17.1115" x2="0.717942" y2="52.8988" gradientUnits="userSpaceOnUse">
<stop stop-color="#00C2FF"/>
<stop offset="1" stop-color="#8F01FF" stop-opacity="0.28"/>
</linearGradient>
<linearGradient id="paint1_linear_1_252" x1="35.1884" y1="36.6473" x2="35.1884" y2="2.47929" gradientUnits="userSpaceOnUse">
<stop stop-color="#7000FF"/>
<stop offset="1" stop-color="white" stop-opacity="0"/>
</linearGradient>
</defs>
</svg>
