<svg width="18" height="18" viewBox="0 0 18 18" fill="none" xmlns="http://www.w3.org/2000/svg">
<path d="M15.996 6.00001H13.8L13.332 3.20401C13.2377 2.78097 13.0306 2.39137 12.7327 2.07656C12.4348 1.76175 12.0572 1.53349 11.64 1.41601C11.2207 1.28183 10.7842 1.20907 10.344 1.20001H7.656C7.21584 1.20907 6.77931 1.28183 6.36 1.41601C5.9428 1.53349 5.56521 1.76175 5.2673 2.07656C4.96939 2.39137 4.7623 2.78097 4.668 3.20401L4.2 6.00001H2.004C1.90949 5.99944 1.81618 6.0212 1.73167 6.06353C1.64716 6.10585 1.57385 6.16754 1.5177 6.24357C1.46155 6.31961 1.42416 6.40783 1.40858 6.50105C1.39299 6.59427 1.39964 6.68985 1.428 6.78001L3.684 14.34C3.79885 14.7052 4.02716 15.0243 4.33576 15.2509C4.64435 15.4775 5.01715 15.5998 5.4 15.6H12.6C12.9808 15.5972 13.3509 15.4738 13.6571 15.2474C13.9633 15.021 14.1898 14.7033 14.304 14.34L16.56 6.78001C16.5881 6.69082 16.5949 6.59629 16.5799 6.50399C16.565 6.41169 16.5287 6.32416 16.4739 6.24839C16.4191 6.17261 16.3473 6.1107 16.2644 6.06757C16.1814 6.02445 16.0895 6.00131 15.996 6.00001ZM5.424 6.00001L5.856 3.39601C5.90336 3.1834 6.01322 2.98981 6.17146 2.84012C6.3297 2.69044 6.52909 2.59149 6.744 2.55601C7.0392 2.46241 7.3464 2.41081 7.656 2.40001H10.344C10.6584 2.41041 10.9664 2.46241 11.268 2.55601C11.4829 2.59149 11.6823 2.69044 11.8405 2.84012C11.9988 2.98981 12.1086 3.1834 12.156 3.39601L12.576 6.00001H5.376H5.424Z" fill="#6F6C99" fill-opacity="0.45"/>
</svg>
