<svg width="20" height="20" viewBox="0 0 20 20" fill="none" xmlns="http://www.w3.org/2000/svg">
<path opacity="0.5" d="M1.66666 5.41669C1.66666 3.64919 1.66666 2.76502 2.21582 2.21585C2.76499 1.66669 3.64916 1.66669 5.41666 1.66669C7.18416 1.66669 8.06832 1.66669 8.61749 2.21585C9.16666 2.76502 9.16666 3.64919 9.16666 5.41669C9.16666 7.18419 9.16666 8.06835 8.61749 8.61752C8.06832 9.16669 7.18416 9.16669 5.41666 9.16669C3.64916 9.16669 2.76499 9.16669 2.21582 8.61752C1.66666 8.06835 1.66666 7.18419 1.66666 5.41669ZM10.8333 14.5834C10.8333 12.8159 10.8333 11.9317 11.3825 11.3825C11.9317 10.8334 12.8158 10.8334 14.5833 10.8334C16.3508 10.8334 17.235 10.8334 17.7842 11.3825C18.3333 11.9317 18.3333 12.8159 18.3333 14.5834C18.3333 16.3509 18.3333 17.235 17.7842 17.7842C17.235 18.3334 16.3508 18.3334 14.5833 18.3334C12.8158 18.3334 11.9317 18.3334 11.3825 17.7842C10.8333 17.235 10.8333 16.3509 10.8333 14.5834Z" fill="#6F6C99" fill-opacity="0.45"/>
<path d="M1.66666 14.5834C1.66666 12.8159 1.66666 11.9317 2.21582 11.3825C2.76499 10.8334 3.64916 10.8334 5.41666 10.8334C7.18416 10.8334 8.06832 10.8334 8.61749 11.3825C9.16666 11.9317 9.16666 12.8159 9.16666 14.5834C9.16666 16.3509 9.16666 17.235 8.61749 17.7842C8.06832 18.3334 7.18416 18.3334 5.41666 18.3334C3.64916 18.3334 2.76499 18.3334 2.21582 17.7842C1.66666 17.235 1.66666 16.3509 1.66666 14.5834ZM10.8333 5.41669C10.8333 3.64919 10.8333 2.76502 11.3825 2.21585C11.9317 1.66669 12.8158 1.66669 14.5833 1.66669C16.3508 1.66669 17.235 1.66669 17.7842 2.21585C18.3333 2.76502 18.3333 3.64919 18.3333 5.41669C18.3333 7.18419 18.3333 8.06835 17.7842 8.61752C17.235 9.16669 16.3508 9.16669 14.5833 9.16669C12.8158 9.16669 11.9317 9.16669 11.3825 8.61752C10.8333 8.06835 10.8333 7.18419 10.8333 5.41669Z" fill="#6F6C99" fill-opacity="0.45"/>
</svg>
